# xmcd CD database file
#
# Track frame offsets:
#	150
#	11037
#	25175
#	37872
#	54948
#	72666
#	88914
#	101822
#	114809
#	125247
#	136484
#	151652
#	162003
#
# Disc length: 2341 seconds
#
# Revision: 0
# Processed by: cddbd v1.4PL0 Copyright (c) Steve Scherf et al.
# Submitted via: CDex 1.40Beta8
#
DISCID=a509230d
DTITLE=Rudi Nelson - Veien Til Suksess - Er Bratt Og Lang
DYEAR=1998
DGENRE=Country
TTITLE0=Haukeli Topp
TTITLE1=It Gets Herder Every Day
TTITLE2=Veien Til Suksess
TTITLE3=Mansion On The Hill
TTITLE4=Langs Norskekysten
TTITLE5=Kystens Riksveg Nr. 1
TTITLE6=Stranger
TTITLE7=Jeg Reiste Ut En Gang
TTITLE8=O'boy
TTITLE9=Før Meg Tilbake
TTITLE10=Send En Engel
TTITLE11=Diggy Liggy
TTITLE12=Den Fredløse
EXTD=YEAR: 1998 ID3G: 2
EXTT0=
EXTT1=
EXTT2=
EXTT3=
EXTT4=
EXTT5=
EXTT6=
EXTT7=
EXTT8=
EXTT9=
EXTT10=
EXTT11=
EXTT12=
PLAYORDER=
